# xmcd
#
# Track frame offsets: 
#        150
#        17869
#        40078
#        67078
#        82031
#        99169
#        117066
#        141923
#        162020
#        177956
#        213934
#        232904
#
# Disc length: 3312 seconds
#
# Revision: 0
# Processed by: cddbd v1.5.1PL2 Copyright (c) Steve Scherf et al.
# Submitted via: ExactAudioCopy v0.95a5
#
DISCID=960cee0c
DTITLE=The Blues Torpedoes - Last Call
DYEAR=1999
DGENRE=Blues
TTITLE0=It Dawned on Me
TTITLE1=Mojo Boogie
TTITLE2=Man That I Love
TTITLE3=One Monkey
TTITLE4=Better Walk Away
TTITLE5=I Can't Deny
TTITLE6=Wang Dang Doodle
TTITLE7=New Girl in Town
TTITLE8=Red Cadillac
TTITLE9=I Take the Fall
TTITLE10=Move Over Daddy
TTITLE11=Statesboro Plus
EXTD=
EXTT0=
EXTT1=
EXTT2=
EXTT3=
EXTT4=
EXTT5=
EXTT6=
EXTT7=
EXTT8=
EXTT9=
EXTT10=
EXTT11=
PLAYORDER=
